<svg width="50" height="50" viewBox="0 0 50 50" fill="none" xmlns="http://www.w3.org/2000/svg">
<rect width="50" height="50" rx="16" fill="#5546FF" style="fill:#5546FF;fill:color(display-p3 0.3333 0.2745 1.0000);fill-opacity:1;"/>
<path d="M21.3736 7.5H29.8172C30.7672 7.5 31.4301 8.45735 31.1099 9.36669L26.3936 22.7557L35.9192 12.7825C36.5539 12.1178 37.6377 12.2547 38.0933 13.057L42.3149 20.4914C42.79 21.3279 42.306 22.3903 41.3712 22.563L28.1764 25L41.3712 27.437C42.306 27.6097 42.79 28.6721 42.3149 29.5086L38.0933 36.943C37.6377 37.7453 36.5539 37.8822 35.9192 37.2175L26.0998 26.9367L29.9474 40.7229C30.1961 41.6142 29.5377 42.5 28.6265 42.5H20.1829C19.2329 42.5 18.57 41.5425 18.8903 40.6333L23.6065 27.2443L14.0809 37.2175C13.4462 37.8822 12.3624 37.7453 11.9068 36.943L7.68508 29.5086C7.21003 28.6721 7.69404 27.6097 8.62879 27.437L21.8237 25L8.62879 22.563C7.69404 22.3903 7.21003 21.3279 7.68508 20.4914L11.9068 13.057C12.3624 12.2547 13.4462 12.1178 14.0809 12.7825L23.9003 23.0633L20.0527 9.27707C19.804 8.38585 20.4625 7.5 21.3736 7.5Z" fill="white" style="fill:white;fill-opacity:1;"/>
</svg>
